<svg width="115" height="31" viewBox="0 0 115 31" fill="none" xmlns="http://www.w3.org/2000/svg">
<g clip-path="url(#clip0_1_113)">
<path d="M77.3127 6.61561C75.3054 6.61561 73.7576 7.33091 72.3214 8.82385V6.96349H68.3793V25.2694H72.6209V14.6523C72.6209 12.2218 74.0683 10.6842 76.2644 10.6842C76.6635 10.6842 77.0132 10.7335 77.2625 10.7828L80.2065 6.91326C79.0587 6.71514 78.0606 6.61561 77.3118 6.61561H77.3127ZM113.892 6.96349H109.001L104.485 12.9343L99.969 6.96256H95.0782L101.978 16.1871L95.0782 25.2694H100.069L104.46 19.4781L108.851 25.2694H113.892L106.945 16.202L113.892 6.96349ZM24.8136 2.84561C23.3663 4.78037 23.0165 5.42498 21.6194 5.42498H0.759277V30.23H8.94389C10.7903 30.23 12.5865 29.337 13.7343 27.8487C15.2319 25.8647 15.4309 25.2694 16.8783 25.2694H37.7886V0.464355H29.5538C27.7074 0.464355 25.9112 1.35732 24.8127 2.84561H24.8136ZM31.3007 18.8697H22.5672C20.6706 18.8697 18.9247 19.6632 17.7768 21.2008C16.2793 23.1858 15.9797 23.7811 14.5826 23.7811H7.19702V11.8748H15.9304C17.8261 11.8748 19.573 10.9819 20.7208 9.49357C22.2184 7.55881 22.6175 6.96349 23.9644 6.96349H31.3007V18.8697ZM62.6402 12.7678C64.4875 11.726 65.7841 9.88983 65.7841 7.45928C65.7841 3.8874 63.0401 0.464355 59.0478 0.464355H47.0709V25.2694H59.0478C63.3889 25.2694 66.3832 22.1933 66.3832 18.3237C66.3832 16.042 65.3358 14.057 62.6402 12.7678ZM51.3125 4.33389H58.6981C60.5445 4.33389 61.6421 6.07052 61.6421 7.60811C61.6421 9.49357 59.9957 10.7828 58.4488 10.7828H51.3125V4.33389ZM58.4488 21.3998H51.3125V14.6523H58.6981C60.5947 14.6523 62.1416 16.2894 62.1416 17.9768C62.1416 19.8613 60.1956 21.3998 58.4488 21.3998Z" fill="#6B6B6B"/>
<path d="M90.8369 20.0103C90.1383 21.1023 88.7905 21.7469 87.2929 21.7469C84.9488 21.7469 83.002 20.1591 83.002 17.7286H95.6772C95.8772 16.9844 95.9265 16.6375 95.9265 15.9919C95.9265 10.436 92.4833 6.61572 87.2938 6.61572C82.203 6.61572 78.6106 10.2378 78.6106 16.1407C78.6106 21.8957 82.0532 25.6164 87.3933 25.6164C91.1364 25.6164 94.4298 23.7812 95.3777 20.0103H90.8369ZM87.2929 10.4853C89.6388 10.4853 91.4359 11.9736 91.3857 14.206H83.0513C83.0513 12.0238 84.9488 10.4853 87.2929 10.4853Z" fill="#6B6B6B"/>
</g>
<defs>
<clipPath id="clip0_1_113">
<rect width="113.481" height="29.7656" fill="white" transform="translate(0.759277 0.464355)"/>
</clipPath>
</defs>
</svg>
