<svg width="128" height="49" viewBox="0 0 128 49" fill="none" xmlns="http://www.w3.org/2000/svg">
<g clip-path="url(#clip0_1_72)">
<path d="M0.254761 35.2812H6.18141V36.5998H1.679V39.7025H5.82785V40.9552H1.679V44.9308H0.254761V35.2812Z" fill="#6B6B6B"/>
<path d="M10.3792 37.4175C12.4606 37.4175 13.8649 38.9758 13.8649 41.2773C13.8649 43.5788 12.4665 45.1371 10.3792 45.1371C8.29178 45.1371 6.89153 43.5788 6.89153 41.2773C6.89153 38.9758 8.29777 37.4175 10.3792 37.4175ZM10.3792 38.6721C9.05483 38.6721 8.24183 39.6711 8.24183 41.2693C8.24183 42.8675 9.05483 43.8664 10.3792 43.8664C11.7035 43.8664 12.5145 42.8675 12.5145 41.2693C12.5145 39.6711 11.7015 38.6721 10.3792 38.6721Z" fill="#6B6B6B"/>
<path d="M15.0845 37.6255H16.353V38.2248H16.3809C16.6705 37.7713 17.2358 37.4956 17.911 37.4956C18.1855 37.4987 18.4585 37.5356 18.724 37.6055L18.4623 38.956C18.2161 38.8802 17.9607 38.8385 17.7033 38.8322C16.8623 38.8322 16.4348 39.4115 16.4348 40.6782V44.9316H15.0845V37.6255Z" fill="#6B6B6B"/>
<path d="M19.5709 37.6258H20.8674V38.1992H20.8933C21.1231 37.9461 21.4044 37.7451 21.7182 37.6097C22.0321 37.4743 22.3713 37.4075 22.713 37.414C23.077 37.4077 23.4374 37.4867 23.7652 37.6449C24.093 37.8032 24.3793 38.0362 24.6007 38.3251H24.6207C24.8702 38.0406 25.1774 37.8122 25.5217 37.6552C25.866 37.4981 26.2398 37.4159 26.6182 37.414C28.1063 37.414 29.2149 38.449 29.2149 39.9094V44.9319H27.8907V40.1371C27.8907 39.2561 27.3253 38.6766 26.4584 38.6766C25.5915 38.6766 25.0242 39.298 25.0242 40.221V44.9359H23.7617V40.1411C23.7617 39.2601 23.1825 38.6806 22.3415 38.6806C21.4586 38.6806 20.8933 39.302 20.8933 40.225V44.9399H19.5709V37.6258Z" fill="#6B6B6B"/>
<path d="M33.8139 37.4175C35.7975 37.4175 37.1218 38.9199 37.1218 41.1115V41.6769H31.7845C31.7771 42.2708 31.9825 42.8477 32.3637 43.3031C32.5421 43.5107 32.7649 43.6756 33.0155 43.7855C33.2662 43.8954 33.5384 43.9478 33.8119 43.9384C34.7347 43.9384 35.2861 43.5788 35.8933 42.6019L36.9401 43.3031C36.2928 44.5178 35.2182 45.1371 33.8259 45.1371C31.7984 45.1371 30.4302 43.5788 30.4302 41.2773C30.4302 38.9758 31.8164 37.4175 33.8139 37.4175ZM35.7834 40.644C35.7296 39.4452 34.9705 38.6162 33.8139 38.6162C33.2827 38.6281 32.777 38.8465 32.4041 39.225C32.0313 39.6036 31.8204 40.1125 31.8164 40.644H35.7834Z" fill="#6B6B6B"/>
<path d="M38.3411 37.6255H39.6054V38.2248H39.6335C39.9231 37.7713 40.4884 37.4956 41.1635 37.4956C41.438 37.4987 41.7111 37.5356 41.9766 37.6055L41.7148 38.956C41.4693 38.8804 41.2146 38.8387 40.9578 38.8322C40.1169 38.8322 39.6895 39.4115 39.6895 40.6782V44.9316H38.3371L38.3411 37.6255Z" fill="#6B6B6B"/>
<path d="M42.8257 34.8672H44.1761V44.9304H42.8257V34.8672Z" fill="#6B6B6B"/>
<path d="M47.7803 44.3802L44.9698 37.6255H46.3881L48.4555 42.8198H48.4835L50.5789 37.6255H51.9931L47.6506 48.0323H46.2522L47.7803 44.3802Z" fill="#6B6B6B"/>
<path d="M55.4931 35.2812H56.9133V39.9542H56.9393L60.7586 35.2812H62.4545L58.9249 39.5267L62.812 44.9308H61.0881L58.0439 40.5955H58.016L56.9133 41.9461V44.9308H55.4931V35.2812Z" fill="#6B6B6B"/>
<path d="M66.1258 37.4175C68.1113 37.4175 69.4336 38.9199 69.4336 41.1115V41.6769H64.1003C64.092 42.2709 64.2976 42.8481 64.6796 43.3031C64.8574 43.5109 65.0797 43.6759 65.3301 43.7858C65.5805 43.8958 65.8524 43.948 66.1258 43.9384C67.0486 43.9384 67.6 43.5788 68.2072 42.6019L69.2539 43.3031C68.6067 44.5178 67.5321 45.1371 66.1398 45.1371C64.1143 45.1371 62.7439 43.5788 62.7439 41.2773C62.7439 38.9758 64.1282 37.4175 66.1258 37.4175ZM68.0973 40.644C68.0414 39.4452 67.2843 38.6162 66.1258 38.6162C65.5945 38.6281 65.0889 38.8465 64.7159 39.225C64.3431 39.6036 64.1323 40.1125 64.1282 40.644H68.0973Z" fill="#6B6B6B"/>
<path d="M73.7186 37.4175C75.7041 37.4175 77.0264 38.9199 77.0264 41.1115V41.6769H71.6931C71.6857 42.2708 71.8911 42.8477 72.2723 43.3031C72.4504 43.5107 72.6727 43.6754 72.9231 43.7854C73.1734 43.8954 73.4453 43.9477 73.7186 43.9384C74.6433 43.9384 75.1947 43.5788 75.8 42.6019L76.8487 43.3031C76.1995 44.5178 75.1248 45.1371 73.7325 45.1371C71.707 45.1371 70.3367 43.5788 70.3367 41.2773C70.3367 38.9758 71.721 37.4175 73.7186 37.4175ZM75.6901 40.644C75.6342 39.4452 74.8771 38.6162 73.7186 38.6162C73.1873 38.6281 72.6816 38.8465 72.3088 39.225C71.9359 39.6036 71.725 40.1125 71.721 40.644H75.6901Z" fill="#6B6B6B"/>
<path d="M78.2476 37.6256H79.5702V38.3008H79.5981C79.8645 38.0168 80.1872 37.7916 80.5456 37.6395C80.904 37.4874 81.2903 37.412 81.6795 37.4178C83.5811 37.4178 84.9595 39.016 84.9595 41.2776C84.9595 43.5391 83.5811 45.1374 81.6935 45.1374C81.3076 45.1431 80.9246 45.0688 80.5689 44.9192C80.2131 44.7697 79.892 44.5481 79.6261 44.2683H79.5981V48.0323H78.2476V37.6256ZM81.5696 38.6724C81.3115 38.6708 81.0555 38.7203 80.8165 38.818C80.5776 38.9157 80.3602 39.0596 80.1769 39.2414C79.9937 39.4234 79.8483 39.6398 79.749 39.8781C79.6496 40.1164 79.5983 40.3721 79.5981 40.6303V41.9129C79.5946 42.1692 79.6419 42.4236 79.7372 42.6616C79.8324 42.8995 79.9739 43.1163 80.1532 43.2993C80.3325 43.4824 80.5463 43.6282 80.7822 43.7283C81.0181 43.8285 81.2714 43.881 81.5277 43.8827C82.7961 43.8827 83.6092 42.8839 83.6092 41.2856C83.6092 39.6873 82.8241 38.6724 81.5696 38.6724Z" fill="#6B6B6B"/>
<path d="M87.2887 36.5998H84.3484V35.2812H91.6394V36.5998H88.7169V44.9308H87.2968L87.2887 36.5998Z" fill="#6B6B6B"/>
<path d="M91.4291 37.6255H92.6976V38.2248H92.7254C93.0152 37.7713 93.5784 37.4956 94.2556 37.4956C94.53 37.4987 94.8032 37.5356 95.0686 37.6055L94.8069 38.956C94.5608 38.8802 94.3053 38.8385 94.0479 38.8322C93.2069 38.8322 92.7794 39.4115 92.7794 40.6782V44.9316H91.4291V37.6255Z" fill="#6B6B6B"/>
<path d="M95.8556 37.6255H97.2059V42.1326C97.2059 43.3033 97.7432 43.8827 98.8459 43.8827C99.8446 43.8827 100.514 43.1934 100.514 42.1326V37.6255H101.864V44.9315H100.57V44.2822H100.528C100.086 44.8197 99.2873 45.1374 98.4464 45.1374C96.8064 45.1374 95.8497 44.1385 95.8497 42.3804L95.8556 37.6255Z" fill="#6B6B6B"/>
<path d="M106.521 37.4167C107.299 37.3959 108.056 37.6554 108.658 38.1479C109.252 38.634 109.638 39.3297 109.734 40.0918L108.437 40.3535C108.257 39.2927 107.555 38.6713 106.521 38.6713C105.253 38.6713 104.44 39.6703 104.44 41.2685C104.44 42.8668 105.253 43.8658 106.521 43.8658C107.555 43.8658 108.229 43.2663 108.437 42.1835L109.734 42.4473C109.638 43.2128 109.253 43.9125 108.658 44.4031C108.054 44.8914 107.296 45.146 106.521 45.1204C104.497 45.1204 103.09 43.55 103.09 41.2605C103.09 38.971 104.497 37.4167 106.521 37.4167Z" fill="#6B6B6B"/>
<path d="M110.91 34.8672H112.26V40.7109H112.288L115.119 37.6242H116.939L114.249 40.4771L117.104 44.9304H115.518L113.341 41.4142H113.32L112.26 42.5728V44.9304H110.91V34.8672Z" fill="#6B6B6B"/>
<path d="M117.896 34.9351H119.371V36.3555H117.896V34.9351ZM117.964 37.6242H119.31V44.9302H117.96L117.964 37.6242Z" fill="#6B6B6B"/>
<path d="M120.832 37.6253H122.129V38.2725H122.156C122.419 38.0005 122.733 37.7846 123.081 37.6376C123.429 37.4906 123.804 37.4158 124.182 37.4175C125.849 37.4175 126.938 38.5063 126.938 40.2145V44.9294H125.588V40.4223C125.588 39.3334 124.967 38.6722 123.92 38.6722C122.873 38.6722 122.184 39.3754 122.184 40.4223V44.9314H120.832V37.6253Z" fill="#6B6B6B"/>
<path d="M82.6666 0.92334H77.0875V5.90196H82.6666V0.92334Z" fill="#6B6B6B"/>
<path d="M69.7988 25.0213V13.0103H74.7128V8.14354H69.7988V0.92334H64.2057V8.13953H61.0298V13.0063H64.2077V30.0059H74.7128V25.0113L69.7988 25.0213Z" fill="#6B6B6B"/>
<path d="M21.8141 8.13623H15.1323L5.14469 25.02H0.254761V30.0146H8.06308L16.235 16.1876V30.0046H22.8268L30.9607 16.1476V30.0046H36.5538V8.13623H29.842L21.8141 21.6976V8.13623Z" fill="#6B6B6B"/>
<path d="M82.6706 8.13623H77.0775V30.0046H82.6706V8.13823V8.13623Z" fill="#6B6B6B"/>
<path d="M82.6665 0.92334H77.0875V5.90596H82.6665V0.92334Z" fill="#6B6B6B"/>
<path d="M49.6816 7.88232H49.6396C43.6251 7.88232 38.7952 12.8769 38.7952 19.0703C38.7952 25.2635 43.6251 30.2581 49.6396 30.2581H49.6816C55.6981 30.2581 60.4842 25.2156 60.4842 19.0703C60.4842 12.9249 55.6981 7.88232 49.6816 7.88232ZM49.6816 24.6642H49.6396C46.6753 24.6642 44.3882 22.1649 44.3882 19.0703C44.3882 15.9756 46.6753 13.4763 49.6396 13.4763H49.6816C52.562 13.4763 54.8971 16.0176 54.8971 19.0703C54.8931 22.1608 52.606 24.6602 49.6816 24.6602V24.6642Z" fill="#6B6B6B"/>
<path d="M117.232 25.2911C119.48 25.2911 120.88 23.9786 121.261 22.8317H126.855C126.643 24.6558 124.226 30.2557 117.228 30.2557C110.911 30.2557 106.243 25.5049 106.243 19.0558C106.243 12.7366 111.037 7.85791 117.057 7.85791C122.782 7.85791 127.244 12.8625 127.244 18.972C127.244 19.6072 127.202 20.2026 127.16 20.6261H111.979C112.357 23.2993 113.969 25.2911 117.232 25.2911ZM112.151 16.6384H121.74C121.139 14.4409 119.662 12.8206 117.075 12.8206C114.364 12.8206 112.786 14.3909 112.157 16.6384H112.151Z" fill="#6B6B6B"/>
<path d="M101.33 8.14228L96.0005 22.4467L90.6711 8.14228H84.6904L93.15 30.0067H98.779L107.288 8.15428H101.33C101.33 8.15428 101.33 8.14029 101.33 8.14228Z" fill="#6B6B6B"/>
</g>
<defs>
<clipPath id="clip0_1_72">
<rect width="126.99" height="47.1094" fill="white" transform="translate(0.254761 0.92334)"/>
</clipPath>
</defs>
</svg>
