<svg width="137" height="27" viewBox="0 0 137 27" fill="none" xmlns="http://www.w3.org/2000/svg">
<g clip-path="url(#clip0_1_65)">
<path fill-rule="evenodd" clip-rule="evenodd" d="M59.4734 7.09924C61.2386 7.09924 62.9666 7.42001 64.0076 7.71006L64.0967 7.73519L64.1806 7.30652H71.3775V9.69116L69.7845 9.86351L72.0602 17.9368H72.2593L74.791 7.68002H79.0865L81.5328 17.9368H81.7035L83.837 9.86351L82.2155 9.69116L82.5854 7.30652H88.5595L88.5586 8.91464C88.4299 9.17243 88.3097 9.43572 88.1998 9.70412L87.5346 9.83476C87.1518 9.89004 86.9793 10.025 86.866 10.3674L86.8522 10.4094L83.3534 22.2751H78.8588L76.6401 12.6504H76.4694L74.2221 22.2751H69.1018L65.5175 10.3807C65.4085 10.0503 65.2733 9.98377 64.9618 9.90291L64.9202 9.89227L64.6693 9.83794L64.6854 9.90291V12.0811L61.6546 11.8809L61.3712 10.3918C61.3433 10.1628 61.2863 10.0484 61.0884 9.99106L60.998 9.96471C60.6151 9.85974 59.9815 9.76197 59.2755 9.76197C57.8592 9.76197 57.0658 10.306 57.0658 11.2222C57.0658 12.2233 58.1994 12.5582 59.6048 12.8837L60.5537 13.1018L60.6849 13.1333C62.8321 13.6552 65.1105 14.5371 65.1105 17.7212C65.1105 21.2144 62.3065 22.6457 58.7089 22.6457C56.1995 22.6457 53.7439 21.9945 53.1451 21.6432L53.1003 21.6151V17.4637L56.1312 17.6927L56.4149 19.3247L56.4237 19.3944C56.4552 19.6035 56.5241 19.7023 56.7546 19.7539L56.8211 19.7754L56.8967 19.7977L56.9814 19.8208L57.0788 19.845C57.4875 19.9423 58.1227 20.0403 58.9358 20.0403C60.4365 20.0403 61.2863 19.611 61.2863 18.5516C61.2863 17.4251 60.1901 17.0744 58.7797 16.8178L58.1346 16.7004L57.8598 16.6478C55.6506 16.2133 53.2141 15.4268 53.2141 12.1099C53.2141 8.55971 56.2162 7.09924 59.4734 7.09924ZM33.3512 7.09924C37.5903 7.09924 39.317 8.25023 39.3511 12.1622L39.3516 12.2816L39.3517 19.2805L39.3526 19.3574L39.3551 19.4257L39.3597 19.4883C39.3815 19.703 39.4591 19.758 39.7262 19.8002L39.8024 19.8113L40.9484 20.0054V17.4637L43.9628 17.6927L44.2448 19.3247C44.2723 19.5822 44.3293 19.6968 44.5828 19.7539L44.6489 19.7754L44.724 19.7977L44.8083 19.8208L44.9052 19.845C45.3116 19.9423 45.9434 20.0403 46.752 20.0403C48.2446 20.0403 49.0897 19.611 49.0897 18.5516C49.0897 17.4627 48.0709 17.0987 46.736 16.8438L45.9464 16.6988L45.6735 16.6461L45.4754 16.6059L45.2826 16.5649C43.2015 16.1092 41.0615 15.2267 41.0615 12.1099C41.0615 8.55971 44.0473 7.09924 47.2867 7.09924C49.4373 7.09924 51.5354 7.58087 52.3861 7.8972L52.4703 7.92959V12.0811L49.456 11.8809L49.1742 10.3918C49.1464 10.1628 49.0897 10.0484 48.893 9.99106C48.5267 9.87665 47.8506 9.76197 47.09 9.76197C45.6813 9.76197 44.8924 10.306 44.8924 11.2222C44.8924 12.2407 46.0588 12.5693 47.4899 12.9005L48.1601 13.0546C50.3855 13.5698 52.8931 14.3716 52.8931 17.7212C52.8931 21.2141 50.1043 22.6457 46.5264 22.6457C44.2472 22.6457 42.0178 22.1034 41.194 21.7414L41.1546 21.7237V22.3021H35.9709L35.6889 20.756L35.5483 20.7274C34.4781 21.7869 33.0694 22.6457 30.8157 22.6457C27.2667 22.6457 26.7027 20.1838 26.7027 18.4084C26.7027 15.574 28.4149 14.2549 31.8658 14.0065L35.2104 13.7706L35.2103 12.1407L35.2088 11.9784L35.2067 11.8713L35.201 11.7148L35.1954 11.6132C35.1305 10.5925 34.804 9.93398 33.3229 9.93398L33.1502 9.93527L33.0391 9.93767C31.8904 9.97055 31.2852 10.25 31.2668 11.7796L31.2664 11.8523L27.2941 11.5083C27.2941 7.68214 30.6906 7.11045 33.2732 7.0994L33.3512 7.09924ZM135.421 0.67334L135.422 19.2256L135.424 19.2919C135.437 19.541 135.503 19.601 135.789 19.6464L137.2 19.8561V22.0979H132.029L131.751 20.5088L131.556 20.4804C130.389 21.6439 129.026 22.4384 126.996 22.4384C123.715 22.4384 121.602 20.3102 121.602 14.8902C121.602 9.18643 124.41 7.02978 127.497 7.02978C129.071 7.02978 130.301 7.57061 131.341 8.33551L131.417 8.39187V4.07857C131.417 3.80974 131.317 3.61731 131.094 3.52542L131.056 3.51103L129.526 2.97187L129.832 0.67334H135.421ZM119.247 6.89195C119.883 6.89195 121.134 6.99992 121.682 7.13759L121.736 7.15194V12.4094L118.304 12.2939L118.018 10.7629C117.961 10.5029 117.875 10.4451 117.646 10.4451C116.946 10.4451 116.12 11.008 115.667 11.3874L115.587 11.4562V19.1612C115.589 19.5664 115.629 19.6556 116.006 19.6862L118.876 19.9202V22.2312H109.523V19.8913L110.81 19.718C111.198 19.6621 111.264 19.5791 111.268 19.1811V10.6762C111.268 10.3729 111.189 10.1748 110.934 10.0821L110.896 10.0696L109.367 9.52585L109.355 9.49735L109.666 7.18082H114.7L115.043 9.49186H115.215C116.159 8.01855 117.418 6.89195 119.247 6.89195ZM20.3714 1.50249C25.6285 1.50249 27.2193 4.30852 27.2193 7.60089C27.2193 12.5327 24.2956 14.5463 19.5773 14.5861L19.4338 14.5868H17.3595L17.3599 19.2489L17.3616 19.3214L17.3652 19.3882C17.3832 19.6277 17.4565 19.6855 17.7391 19.7295L17.8144 19.7404L21.8774 19.9694V22.2312H10.7393V22.2245L10.7268 22.2312H0.842395V19.9793L3.26384 19.7793C3.63205 19.7528 3.70548 19.6519 3.71363 19.291L3.71446 19.2096V9.36542C3.71446 8.95709 3.41052 9.02446 1.29362 9.74901L0.512497 7.41132L5.3507 4.61179H7.96674L7.96683 19.2513L7.96778 19.3284L7.97021 19.3974C7.98466 19.6799 8.05556 19.7503 8.37917 19.7765L8.41764 19.7793L10.7268 19.9793L10.7393 19.9854V19.9694L12.5293 19.7689C12.9003 19.7156 12.9748 19.6373 12.9831 19.2778L12.984 19.1963V4.5661C12.984 4.1511 12.9305 4.02984 12.568 3.99645L12.5293 3.9933L10.7393 3.79306V1.50249H20.3714ZM35.1308 15.997L33.2155 16.1389C31.5544 16.2523 30.9629 16.6777 30.9629 17.8129C30.9629 18.9483 31.6388 19.3738 32.5682 19.3738C33.4968 19.3738 34.4254 18.8666 35.0711 18.3963L35.1308 18.3523V15.997ZM128.727 10.3239C126.687 10.3239 125.874 12.2533 125.857 14.7567V14.8386C125.857 17.6101 126.637 19.1532 128.392 19.1532C129.312 19.1532 130.312 18.6139 131.058 17.9806L131.123 17.9245V11.1811C130.426 10.6954 129.535 10.3239 128.727 10.3239ZM18.9627 4.64633H17.3008V11.4848L18.7649 11.4846L18.8757 11.4836L19.0391 11.4798L19.1449 11.476L19.3006 11.4678C20.9782 11.3642 22.6235 10.7213 22.6235 7.85267C22.6235 5.12837 20.9616 4.64633 18.9627 4.64633Z" fill="#6B6B6B"/>
<path fill-rule="evenodd" clip-rule="evenodd" d="M98.7445 2.18896C105.371 2.18896 110.742 7.61428 110.742 14.3066C110.742 20.9992 105.371 26.4242 98.7445 26.4242C92.1181 26.4242 86.7467 20.9992 86.7467 14.3066C86.7467 7.61428 92.1181 2.18896 98.7445 2.18896ZM98.7445 4.65036C93.464 4.65036 89.1835 8.97366 89.1835 14.3066C89.1835 19.6398 93.464 23.9629 98.7445 23.9629C104.025 23.9629 108.305 19.6398 108.305 14.3066C108.305 8.97366 104.025 4.65036 98.7445 4.65036ZM98.7445 7.11176C102.678 7.11176 105.868 10.3331 105.868 14.3066C105.868 18.2804 102.678 21.5014 98.7445 21.5014C94.8099 21.5014 91.6203 18.2804 91.6203 14.3066C91.6203 10.3331 94.8099 7.11176 98.7445 7.11176ZM99.8938 9.19448H97.5951C97.3085 9.19448 97.0741 9.44641 97.0578 9.764L97.057 9.79962V12.2258C97.0604 12.3158 97.0904 12.4069 97.1445 12.4792L97.166 12.5053L97.5016 12.8835C97.6346 13.0327 97.6415 13.2699 97.523 13.4283L97.5016 13.454L97.166 13.8322C97.1059 13.8994 97.0698 13.9879 97.0621 14.0819L97.0604 14.1174L97.057 18.8137C97.057 19.1359 97.281 19.3993 97.5634 19.4178L97.5951 19.4188H99.8938C100.18 19.4188 100.414 19.1669 100.43 18.8492L100.431 18.8137V16.5712C100.431 16.4761 100.402 16.3845 100.348 16.3121L100.326 16.286L99.9899 15.9078C99.8577 15.7585 99.8508 15.5214 99.9693 15.3629L99.9899 15.3372L100.326 14.9591C100.386 14.8919 100.422 14.8033 100.43 14.7093L100.431 14.6738V9.79962C100.431 9.46538 100.191 9.19448 99.8938 9.19448Z" fill="#6B6B6B"/>
</g>
<defs>
<clipPath id="clip0_1_65">
<rect width="136.475" height="25.75" fill="white" transform="translate(0.512497 0.67334)"/>
</clipPath>
</defs>
</svg>
