<svg width="111" height="15" viewBox="0 0 111 15" fill="none" xmlns="http://www.w3.org/2000/svg">
<g clip-path="url(#clip0_1_118)">
<path d="M10.0186 7.97809C10.0186 9.80086 8.65698 10.877 7.1197 10.877C5.45065 10.877 4.22083 9.66909 4.22083 7.97809V0.687012H0.750977V7.82437C0.750977 11.1624 3.03493 14.0613 7.14165 14.0613C11.4021 14.0613 13.6861 11.1624 13.6861 7.82437V0.687012H10.0186V7.97809Z" fill="#6B6B6B"/>
<path d="M22.9536 0.379395C18.5394 0.379395 16.4092 3.27826 16.4092 6.61635V13.7537H19.901V6.46261C19.901 4.63984 21.2626 3.56375 22.7998 3.56375C24.4689 3.56375 25.6988 4.77161 25.6988 6.46261V13.7537H29.1906V6.61635C29.3443 3.27826 27.0603 0.379395 22.9536 0.379395Z" fill="#6B6B6B"/>
<path d="M36.0425 13.7759V0.687012H32.5287V2.50978V13.7759H36.0425Z" fill="#6B6B6B"/>
<path d="M45.6175 8.593L41.9718 0.687012H38.3263L44.4096 13.7759H46.8252L52.9085 0.687012H49.263L45.6175 8.593Z" fill="#6B6B6B"/>
<path d="M58.7062 13.7759V0.687012H55.1924V2.50978V13.7759H58.7062Z" fill="#6B6B6B"/>
<path d="M65.69 4.33232C65.69 3.71741 66.4587 3.27818 67.5128 3.27818C68.4352 3.27818 69.3356 3.73937 70.1042 4.20055L71.7733 1.60914C70.8509 0.994232 69.0282 0.247559 67.3591 0.247559C64.7677 0.247559 62.3299 1.76287 62.3299 4.35428C62.3299 8.61473 68.7207 7.8461 68.7207 9.8226C68.7207 10.4375 67.952 10.8767 67.0516 10.8767C65.69 10.8767 64.3065 10.4155 63.4061 9.51514L61.4295 12.2602C62.9449 13.3144 64.9214 14.0831 66.7441 14.0831C69.4892 14.0831 71.905 12.5677 71.905 9.97632C72.0807 5.40841 65.69 6.15509 65.69 4.33232Z" fill="#6B6B6B"/>
<path d="M78.3175 13.7759V0.687012H74.8257V2.50978V13.7759H78.3175Z" fill="#6B6B6B"/>
<path d="M87.8927 0.379395C83.9397 0.379395 80.8871 3.43198 80.8871 7.23126C80.8871 11.0305 83.9397 14.0832 87.8927 14.0832C91.8457 14.0832 94.8983 11.0305 94.8983 7.23126C94.8983 3.43198 91.8457 0.379395 87.8927 0.379395ZM87.8927 10.7231C85.9161 10.7231 84.4008 9.20775 84.4008 7.23126C84.4008 5.25475 85.7624 3.58571 87.8927 3.58571C90.0229 3.58571 91.3845 5.25475 91.3845 7.23126C91.3845 9.20775 90.0229 10.7231 87.8927 10.7231Z" fill="#6B6B6B"/>
<path d="M103.858 0.379395C99.5979 0.379395 97.3139 3.27826 97.3139 6.61635V13.7537H100.806V6.46261C100.806 4.63984 102.167 3.56375 103.705 3.56375C105.374 3.56375 106.603 4.77161 106.603 6.46261V13.7537H110.249V6.61635C110.249 3.27826 107.965 0.379395 103.858 0.379395Z" fill="#6B6B6B"/>
</g>
<defs>
<clipPath id="clip0_1_118">
<rect width="109.498" height="13.9062" fill="white" transform="translate(0.750977 0.22998)"/>
</clipPath>
</defs>
</svg>
