<svg width="128" height="33" viewBox="0 0 128 33" fill="none" xmlns="http://www.w3.org/2000/svg">
<g clip-path="url(#clip0_1_26)">
<path fill-rule="evenodd" clip-rule="evenodd" d="M0 14.2573C0 6.59895 6.20832 0.390625 13.8667 0.390625C21.525 0.390625 27.7333 6.59895 27.7333 14.2573V32.3906H20.2667H12.8H0V23.8573V19.0573V14.2573ZM2.13333 23.8573V30.2573H10.6667V23.8573C10.6667 21.5009 8.75642 19.5906 6.4 19.5906C4.04359 19.5906 2.13333 21.5009 2.13333 23.8573ZM12.8 30.2573V23.8573C12.8 20.3226 9.93462 17.4573 6.4 17.4573C4.76084 17.4573 3.26561 18.0735 2.13333 19.0869V19.0573C2.13333 14.639 5.71506 11.0573 10.1333 11.0573C14.5516 11.0573 18.1333 14.639 18.1333 19.0573V30.2573H12.8ZM25.6 30.2573H20.2667V19.0573C20.2667 13.4608 15.7298 8.92395 10.1333 8.92395C6.94016 8.92395 4.09195 10.4009 2.23459 12.7089C2.99238 6.96063 7.9114 2.52396 13.8667 2.52396C20.3468 2.52396 25.6 7.77716 25.6 14.2573V30.2573Z" fill="white"/>
<path d="M68.357 23.2981H70.7539V9.45703H68.357V23.2981Z" fill="white"/>
<path fill-rule="evenodd" clip-rule="evenodd" d="M63.7947 21.0238C63.2202 21.5532 62.2496 21.7884 61.1601 21.7884C59.5556 21.7884 58.3077 21.2787 57.8323 20.22C57.6738 19.9064 57.5946 19.5731 57.555 19.1614H66.865C66.865 18.0047 66.7065 17.1028 66.35 16.2402C65.5378 14.4562 63.6758 13.3779 61.0017 13.3779C58.3671 13.3779 56.4061 14.3778 55.5939 16.201C55.2968 16.8676 55.1383 17.593 55.1383 18.4948C55.1383 19.3574 55.277 20.1024 55.5939 20.7494C56.4061 22.5726 58.4067 23.5921 61.1403 23.5921C62.9429 23.5921 64.5474 23.1804 65.6171 22.2197C66.0785 21.8046 66.4116 21.321 66.6164 20.7484H64.0553C63.9783 20.8478 63.8911 20.9404 63.7947 21.0238ZM61.0017 15.2012C62.5269 15.2012 63.7154 15.6717 64.2107 16.75C64.3097 16.9852 64.3889 17.2009 64.4286 17.4753H57.5946C57.6342 17.2401 57.7134 17.0244 57.8125 16.8088C58.3077 15.7109 59.4368 15.2012 61.0017 15.2012Z" fill="white"/>
<path d="M82.5251 22.1805C81.4753 23.102 79.95 23.5921 78.088 23.5921C75.5525 23.5921 73.5914 22.6315 72.7595 20.7886C72.4624 20.122 72.3039 19.3574 72.3039 18.4752C72.3039 17.6126 72.4624 16.8284 72.7595 16.1814C73.5914 14.3778 75.5129 13.3779 78.088 13.3779C79.95 13.3779 81.4554 13.8484 82.5053 14.8091C83.2778 15.4756 83.6938 16.3579 83.7532 17.4165H81.1979C81.1385 16.848 80.9008 16.3971 80.5443 16.0638C79.9896 15.5737 79.0982 15.358 78.1078 15.358C76.6618 15.358 75.5723 15.9069 75.0969 16.9068C74.9186 17.3577 74.8196 17.8282 74.8196 18.4752C74.8196 19.1026 74.9186 19.5927 75.0969 20.024C75.5723 21.0238 76.6618 21.5728 78.1078 21.5728C79.0982 21.5728 80.0094 21.3571 80.5443 20.8474C80.9404 20.5141 81.1781 20.0436 81.1979 19.4947H83.7929C83.7136 20.5729 83.2977 21.4748 82.5251 22.1805Z" fill="white"/>
<path fill-rule="evenodd" clip-rule="evenodd" d="M91.0263 23.5725C93.7995 23.5725 95.7012 22.5138 96.5133 20.7298C96.8104 20.0632 96.9689 19.3182 96.9689 18.4752C96.9689 17.6518 96.8104 16.9068 96.5133 16.2402C95.7012 14.4562 93.7995 13.3779 91.0263 13.3779C88.2729 13.3779 86.3713 14.4562 85.5394 16.2794C85.2422 16.9264 85.1036 17.6714 85.1036 18.4752C85.1036 19.2986 85.2422 20.024 85.5394 20.6906C86.3713 22.4942 88.2729 23.5725 91.0263 23.5725ZM91.0263 21.612C89.5209 21.612 88.372 21.0434 87.8768 19.9848C87.6985 19.5535 87.5995 19.0633 87.5995 18.4752C87.5995 17.9067 87.6985 17.3969 87.8768 16.9852C88.372 15.9265 89.5209 15.358 91.0263 15.358C92.5318 15.358 93.7005 15.9069 94.1957 16.9852C94.374 17.3969 94.4532 17.9067 94.4532 18.4752C94.4532 19.0633 94.374 19.5535 94.1957 19.9848C93.7005 21.0434 92.5318 21.612 91.0263 21.612Z" fill="white"/>
<path fill-rule="evenodd" clip-rule="evenodd" d="M122.294 21.7884C123.383 21.7884 124.354 21.5532 124.928 21.0238C125.025 20.9404 125.112 20.8478 125.189 20.7484H127.75C127.545 21.321 127.212 21.8046 126.751 22.2197C125.681 23.1804 124.077 23.5921 122.274 23.5921C119.54 23.5921 117.54 22.5726 116.728 20.7494C116.411 20.1024 116.272 19.3574 116.272 18.4948C116.272 17.593 116.431 16.8676 116.728 16.201C117.54 14.3778 119.501 13.3779 122.135 13.3779C124.81 13.3779 126.672 14.4562 127.484 16.2402C127.84 17.1028 127.999 18.0047 127.999 19.1614H118.689C118.728 19.5731 118.808 19.9064 118.966 20.22C119.441 21.2787 120.689 21.7884 122.294 21.7884ZM125.344 16.75C124.849 15.6717 123.661 15.2012 122.135 15.2012C120.571 15.2012 119.441 15.7109 118.946 16.8088C118.847 17.0244 118.768 17.2401 118.728 17.4753H125.562C125.523 17.2009 125.443 16.9852 125.344 16.75Z" fill="white"/>
<path d="M103.164 13.3984C100.577 13.3984 98.48 15.4968 98.48 18.0854V23.3051H100.928V17.5661C100.928 16.3307 101.929 15.3691 103.164 15.3691C104.398 15.3691 105.399 16.3307 105.399 17.5661V23.3051H107.847V17.5661C107.847 16.3307 108.848 15.3691 110.082 15.3691C111.317 15.3691 112.318 16.3307 112.318 17.5661V23.3051H114.766V18.0854C114.766 15.4968 112.669 13.3984 110.082 13.3984C108.712 13.3984 107.479 13.9872 106.623 14.9258C105.767 13.9872 104.534 13.3984 103.164 13.3984Z" fill="white"/>
<path d="M49.6743 20.5575L52.2015 13.6616H54.7679L50.8889 23.2807H48.4596L46.0499 16.5414L43.6403 23.2807H41.211L37.332 13.6616H39.8984L42.4256 20.5771L44.8353 13.6616H47.245L49.6743 20.5575Z" fill="white"/>
</g>
<defs>
<clipPath id="clip0_1_26">
<rect width="128" height="32" fill="white" transform="translate(0 0.390625)"/>
</clipPath>
</defs>
</svg>
